<svg width="342.1750244140625px" height="122.4000030517578px" xmlns="http://www.w3.org/2000/svg" viewBox="78.91248779296876 13.799998474121097 342.1750244140625 122.4000030517578" style="background: rgb(255, 255, 255);" preserveAspectRatio="xMidYMid"><defs><filter id="editing-hole" x="-100%" y="-100%" width="300%" height="300%"><feFlood flood-color="#000000" result="black"></feFlood><feMorphology operator="dilate" radius="2" in="SourceGraphic" result="erode"></feMorphology><feGaussianBlur in="erode" stdDeviation="4" result="blur"></feGaussianBlur><feOffset in="blur" dx="2" dy="2" result="offset"></feOffset><feComposite operator="atop" in="offset" in2="black" result="merge"></feComposite><feComposite operator="in" in="merge" in2="SourceGraphic" result="inner-shadow"></feComposite></filter></defs><g filter="url(#editing-hole)"><g transform="translate(131.72498565912247, 102.88499641418457)"><path d="M18.15 0.77L18.15 0.77Q12.87 0.77 8.17-0.14L8.17-0.14L8.17-0.14Q3.46-1.04 0.94-2.20L0.94-2.20L0.94-13.09L13.04-13.09L13.04-13.09Q13.04-11.38 13.80-10.62L13.80-10.62L13.80-10.62Q14.57-9.85 16.61-9.85L16.61-9.85L16.61-9.85Q18.32-9.85 19.06-10.37L19.06-10.37L19.06-10.37Q19.80-10.89 19.80-11.94L19.80-11.94L19.80-11.94Q19.80-12.81 19.09-13.45L19.09-13.45L19.09-13.45Q18.37-14.08 16.61-14.74L16.61-14.74L11.88-16.39L11.88-16.39Q5.78-18.70 3.11-21.84L3.11-21.84L3.11-21.84Q0.44-24.97 0.44-30.30L0.44-30.30L0.44-30.30Q0.44-36.80 4.70-40.18L4.70-40.18L4.70-40.18Q8.96-43.56 18.92-43.56L18.92-43.56L18.92-43.56Q23.71-43.56 27.91-42.60L27.91-42.60L27.91-42.60Q32.12-41.63 34.70-40.04L34.70-40.04L34.70-30.20L23.71-30.20L23.71-30.20Q23.71-32.95 20.30-32.95L20.30-32.95L20.30-32.95Q18.64-32.95 17.96-32.53L17.96-32.53L17.96-32.53Q17.27-32.12 17.27-31.07L17.27-31.07L17.27-31.07Q17.27-30.14 18.07-29.59L18.07-29.59L18.07-29.59Q18.86-29.04 20.68-28.43L20.68-28.43L25.46-26.79L25.46-26.79Q31.30-24.80 33.96-21.64L33.96-21.64L33.96-21.64Q36.63-18.48 36.63-13.37L36.63-13.37L36.63-13.37Q36.63-6.38 31.93-2.81L31.93-2.81L31.93-2.81Q27.23 0.77 18.15 0.77L18.15 0.77ZM37.84 12.21L37.84 3.19L40.26 3.19L40.26-21.56L37.84-21.56L37.84-30.58L52.91-30.58L52.91-26.84L52.91-26.84Q54.28-28.60 56.46-29.98L56.46-29.98L56.46-29.98Q58.63-31.35 61.44-31.35L61.44-31.35L61.44-31.35Q67.05-31.35 69.88-27.17L69.88-27.17L69.88-27.17Q72.71-22.99 72.71-15.29L72.71-15.29L72.71-15.29Q72.71-7.59 69.88-3.41L69.88-3.41L69.88-3.41Q67.05 0.77 61.44 0.77L61.44 0.77L61.44 0.77Q58.63 0.77 56.46-0.60L56.46-0.60L56.46-0.60Q54.28-1.98 52.91-3.74L52.91-3.74L52.91 3.19L56.70 3.19L56.70 12.21L37.84 12.21ZM56.10-9.02L56.10-9.02Q57.70-9.02 58.49-9.87L58.49-9.87L58.49-9.87Q59.29-10.72 59.29-12.54L59.29-12.54L59.29-18.04L59.29-18.04Q59.29-19.86 58.49-20.71L58.49-20.71L58.49-20.71Q57.70-21.56 56.10-21.56L56.10-21.56L56.10-21.56Q54.50-21.56 53.71-20.71L53.71-20.71L53.71-20.71Q52.91-19.86 52.91-18.04L52.91-18.04L52.91-12.54L52.91-12.54Q52.91-10.72 53.71-9.87L53.71-9.87L53.71-9.87Q54.50-9.02 56.10-9.02L56.10-9.02ZM97.73-31.35L97.73-31.35Q98.83-31.35 99.82-31.13L99.82-31.13L99.82-31.13Q100.81-30.91 101.47-30.58L101.47-30.58L101.47-20.07L101.47-20.07Q99.22-21.01 96.63-21.01L96.63-21.01L96.63-21.01Q93.17-21.01 91.30-19.20L91.30-19.20L91.30-19.20Q89.43-17.38 89.43-13.80L89.43-13.80L89.43-9.02L94.38-9.02L94.38 0L74.36 0L74.36-9.02L76.78-9.02L76.78-21.56L74.36-21.56L74.36-30.58L89.43-30.58L89.43-26.57L89.43-26.57Q90.97-28.88 92.95-30.11L92.95-30.11L92.95-30.11Q94.93-31.35 97.73-31.35L97.73-31.35ZM117.09-33.60L105.87-33.60L105.87-42.79L117.09-42.79L117.09-33.60ZM120.72 0L103.23 0L103.23-9.02L105.65-9.02L105.65-21.56L103.23-21.56L103.23-30.58L118.30-30.58L118.30-9.02L120.72-9.02L120.72 0ZM135.85 0.77L135.85 0.77Q130.02 0.77 127.08-2.06L127.08-2.06L127.08-2.06Q124.13-4.90 124.13-11.61L124.13-11.61L124.13-21.56L121.71-21.56L121.71-30.58L121.71-30.58Q123.80-30.58 124.85-31.65L124.85-31.65L124.85-31.65Q125.89-32.73 125.89-34.59L125.89-34.59L125.89-37.07L137.56-37.07L137.56-30.58L144.98-30.58L144.98-21.56L137.56-21.56L137.56-12.54L137.56-12.54Q137.56-10.72 138.35-9.87L138.35-9.87L138.35-9.87Q139.15-9.02 140.75-9.02L140.75-9.02L140.75-9.02Q142.83-9.02 145.31-9.52L145.31-9.52L145.31-0.88L145.31-0.88Q143.77-0.28 141.16 0.25L141.16 0.25L141.16 0.25Q138.54 0.77 135.85 0.77L135.85 0.77ZM180.84-9.02L183.26-9.02L183.26 0L168.19 0L168.19-4.29L168.19-4.29Q164.23 0.77 158.29 0.77L158.29 0.77L158.29 0.77Q153.72 0.77 151.44-2.09L151.44-2.09L151.44-2.09Q149.16-4.95 149.16-9.96L149.16-9.96L149.16-21.56L146.74-21.56L146.74-30.58L161.81-30.58L161.81-12.54L161.81-12.54Q161.81-10.72 162.61-9.87L162.61-9.87L162.61-9.87Q163.40-9.02 165-9.02L165-9.02L165-9.02Q166.59-9.02 167.39-9.87L167.39-9.87L167.39-9.87Q168.19-10.72 168.19-12.54L168.19-12.54L168.19-21.56L165.22-21.56L165.22-30.58L180.84-30.58L180.84-9.02ZM214.44-9.02L216.86-9.02L216.86 0L202.34 0L202.34-3.74L202.34-3.74Q201.13-1.98 198.96-0.60L198.96-0.60L198.96-0.60Q196.79 0.77 193.65 0.77L193.65 0.77L193.65 0.77Q189.53 0.77 187.16-1.43L187.16-1.43L187.16-1.43Q184.80-3.63 184.80-7.65L184.80-7.65L184.80-7.65Q184.80-18.04 202.45-18.32L202.45-18.32L202.45-18.32Q202.29-20.18 201.02-20.87L201.02-20.87L201.02-20.87Q199.76-21.56 196.73-21.56L196.73-21.56L196.73-21.56Q194.26-21.56 191.43-21.04L191.43-21.04L191.43-21.04Q188.59-20.52 186.23-19.64L186.23-19.64L186.23-29.75L186.23-29.75Q189.14-30.47 192.55-30.91L192.55-30.91L192.55-30.91Q195.96-31.35 199.21-31.35L199.21-31.35L199.21-31.35Q207.40-31.35 210.92-28.38L210.92-28.38L210.92-28.38Q214.44-25.41 214.44-19.20L214.44-19.20L214.44-9.02ZM202.34-12.54L202.34-12.87L202.34-12.87Q199.87-12.87 198.52-12.21L198.52-12.21L198.52-12.21Q197.17-11.55 197.17-10.01L197.17-10.01L197.17-10.01Q197.17-9.07 197.75-8.50L197.75-8.50L197.75-8.50Q198.33-7.92 199.37-7.92L199.37-7.92L199.37-7.92Q200.80-7.92 201.57-9.13L201.57-9.13L201.57-9.13Q202.34-10.34 202.34-12.54L202.34-12.54ZM236.11 0.06L218.63 0.06L218.63-9.02L221.04-9.02L221.04-33.77L218.63-33.77L218.63-42.79L233.69-42.79L233.69-9.02L236.11-9.02L236.11 0.06Z" fill="#000000"></path></g></g><style>text {
  font-size: 64px;
  font-family: Arial Black;
  dominant-baseline: central;
  text-anchor: middle;
}</style></svg>